<?xml version="1.0" encoding="UTF-8"?>
<svg xmlns="http://www.w3.org/2000/svg" viewBox="0 0 1095 1095" width="1095" height="1095">
<path d="M0.25 0.25C365.08 0.25 729.92 0.25 1094.75 0.25C1094.75 365.08 1094.75 729.92 1094.75 1094.75C729.92 1094.75 365.08 1094.75 0.25 1094.75C0.25 729.92 0.25 365.08 0.25 0.25ZM547.5 224.67C531.69 203.53 512.28 187.51 487.31 178.22C437.53 159.7 373.43 173.23 337.2 212.72C323.84 227.28 313.73 245.3 309.22 264.6C307.91 270.25 307.69 276.07 306.5 281.69C297.57 285.53 287.81 287.35 278.86 291.4C264.08 298.09 250.24 307.83 238.76 319.26C197.05 360.81 180.71 425 199.35 481.23C205.15 498.74 213.76 515.86 224.95 530.55C229.51 536.52 234.83 541.79 239.68 547.5C237.93 552.97 235.11 558.17 233.17 563.61C228.55 576.57 226.43 590.78 226.71 604.5C226.98 617.28 228.97 630.81 233.69 642.77C237.59 652.63 242.28 662.22 249 670.5C254.88 677.74 261.17 684.28 268.66 689.9C312.02 722.44 363.44 711.18 413.5 716.22C446.33 719.53 476.1 731.11 502.1 751.43C506.9 755.18 511.97 758.86 515.96 763.5C511.69 769.12 506.59 774.17 502.06 779.6C487.84 796.62 472.5 816.71 467.31 838.71C454.8 891.68 496.42 935.29 548.5 935.15C598.82 935.01 641.87 889.9 628.01 838.52C622.16 816.85 608.49 797.28 594.12 780.37C589.26 774.65 583.81 769.39 579.17 763.5C583.17 758.89 588.2 755.27 592.92 751.45C619.11 730.27 650.23 719.44 683.5 716.13C715.27 712.98 747.81 716.99 779.29 710.65C832.35 699.96 868.53 657.06 868 602.5C867.86 588.17 865.57 574.23 860.73 560.71C859.11 556.18 856.66 552 855.06 547.5C859.63 542.11 864.71 537.19 869.09 531.61C880.86 516.63 889.6 499.25 895.7 481.26C915.01 424.29 897.02 357.02 853.27 316.22C840.57 304.38 825.13 294.96 809.08 288.44C802.42 285.73 795.23 284.36 788.68 281.5C787.42 276.28 787.27 270.78 786.02 265.5C782.44 250.42 776.08 236.15 766.97 223.57C731.5 174.6 661.14 158.25 605.73 179.27C590.34 185.11 575.77 193.93 563.97 205.47C557.95 211.35 553.57 219.05 547.5 224.67ZM782.5 325.97C798.19 327.68 819.18 344.42 829.52 355.98C869.16 400.3 868.36 475.8 821.97 515.47C800.96 533.43 770.23 535.43 744.53 527.95C739.22 526.4 734.03 524.73 728.95 522.51C725.19 520.87 721.39 518.16 717.4 517.17C707.82 514.79 697.79 520.64 696.1 530.53C693.37 546.58 709.68 551.95 721.34 557.17C741.02 565.97 762.96 570.57 784.5 570.96C794.88 571.16 805.27 568.81 815.5 569.15C834.27 604.09 818.18 648.32 782.18 663.62C762.8 671.86 741.05 671.76 720.38 672.53C691.41 673.6 662.66 673.94 634.61 682.18C611.55 688.96 589.61 700.57 570.21 714.67C563.01 719.89 554.61 728.85 547.5 732.96C539.77 727.54 533.06 720.62 525.37 715.07C504.53 700.01 481.34 687.84 456.45 681.11C443.3 677.56 430.05 675.54 416.5 674.25C372.26 670.05 314.07 682.01 283.91 640.65C280.34 635.76 277.75 630.47 275.68 624.77C272.86 617 271.99 608.71 272.1 600.5C272.25 589.52 274.98 579.27 279.5 569.32C285.36 568.64 291.56 570.25 297.5 570.75C302.47 571.17 307.52 571.07 312.5 570.98C333.42 570.61 355.51 565.69 374.59 557.1C385.94 551.98 400.99 546.83 399.33 531.5C398.24 521.52 389.36 515.09 379.5 516.89C371.97 518.27 364.87 523.66 357.5 526C331.77 534.17 301.16 535.44 278.03 519.48C266.39 511.44 257.11 499.35 250.51 486.98C228.03 444.85 233.88 391.92 265.52 356.02C276.8 343.23 295.39 328.75 312.5 325.72C317.57 335.8 321.83 345.73 328.57 354.9C346.57 379.4 373.62 397.71 401.64 408.83C414.6 413.97 436.79 423.28 448.19 411.69C455.74 404.01 454.4 391 446.11 384.4C442.02 381.15 436.84 380.88 432.01 379.49C422.82 376.86 414.19 373.09 405.69 368.79C364.83 348.12 331.91 294.57 365.07 252.61C371.37 244.64 379.07 237.6 387.65 232.12C399.76 224.39 414.21 218.66 428.5 217.04C439.22 215.83 449.89 215.88 460.5 218.03C467.58 219.46 474.71 222.07 481.13 225.39C506.7 238.63 521.4 265.66 524.63 293.59C526.18 306.99 525.01 321.02 525.03 334.5C525.06 353.5 525.08 372.5 525.05 391.5C525.05 397.17 525.05 402.83 525.06 408.5C525.06 416.17 525.04 423.83 525.03 431.5C525.03 446.74 524.77 464.94 544.5 467.25C576.92 471.06 570.05 430.41 570.1 410.5C570.11 405.17 570.11 399.83 570.11 394.5C570.1 378.83 570.11 363.17 570.11 347.5C570.12 330.7 568.85 313.37 570.41 296.63C573.06 268.23 587.13 239.25 613.44 225.92C620.05 222.58 627.32 219.82 634.56 218.25C687.21 206.84 754.16 246.57 741.83 306.47C735.56 336.94 709.2 359.93 682.35 372.84C676.71 375.56 670.33 378.07 664.29 379.7C660.66 380.68 657.09 381.27 653.91 383.42C644.81 389.59 643.07 402.95 650.39 411.13C661.47 423.51 683.01 413.77 695.74 408.28C735.44 391.17 765.05 365.94 782.5 325.97ZM545.57 491.46C534.55 491.73 524.15 494.1 514.09 498.57C446.26 528.65 450.72 634.45 520.99 658.5C530.61 661.79 540.32 663.46 550.5 663.14C560.36 662.83 570.15 660.56 579.22 656.68C616.34 640.82 636.09 598.55 628.9 559.53C623.8 531.86 603.79 508.14 578.06 497.45C567.73 493.16 556.76 491.18 545.57 491.46ZM541.78 536.41C548.59 535.17 555.27 536.24 561.62 538.83C595.69 552.74 592.32 612.56 554.46 618.77C549.69 619.55 544.59 619.61 539.86 618.55C499.54 609.49 500.41 543.98 541.78 536.41ZM547.5 794.95C551.61 798.06 554.67 802.55 558.07 806.42C568.02 817.78 581.89 834.6 584.66 849.69C588.79 872.28 570.68 890.72 548.5 891.01C523.62 891.35 505.4 871.82 511.42 846.81C515.11 831.48 535.63 805.48 547.5 794.95Z" fill="#fefefe" fill-rule="evenodd" stroke="#fefefe" stroke-width="0.25" stroke-linejoin="round"/>
<path d="M547.5 224.67C553.57 219.05 557.95 211.35 563.97 205.47C575.77 193.93 590.34 185.11 605.73 179.27C661.14 158.25 731.5 174.6 766.97 223.57C776.08 236.15 782.44 250.42 786.02 265.5C787.27 270.78 787.42 276.28 788.68 281.5C795.23 284.36 802.42 285.73 809.08 288.44C825.13 294.96 840.57 304.38 853.27 316.22C897.02 357.02 915.01 424.29 895.7 481.26C889.6 499.25 880.86 516.63 869.09 531.61C864.71 537.19 859.63 542.11 855.06 547.5C856.66 552 859.11 556.18 860.73 560.71C865.57 574.23 867.86 588.17 868 602.5C868.53 657.06 832.35 699.96 779.29 710.65C747.81 716.99 715.27 712.98 683.5 716.13C650.23 719.44 619.11 730.27 592.92 751.45C588.2 755.27 583.17 758.89 579.17 763.5C583.81 769.39 589.26 774.65 594.12 780.37C608.49 797.28 622.16 816.85 628.01 838.52C641.87 889.9 598.82 935.01 548.5 935.15C496.42 935.29 454.8 891.68 467.31 838.71C472.5 816.71 487.84 796.62 502.06 779.6C506.59 774.17 511.69 769.12 515.96 763.5C511.97 758.86 506.9 755.18 502.1 751.43C476.1 731.11 446.33 719.53 413.5 716.22C363.44 711.18 312.02 722.44 268.66 689.9C261.17 684.28 254.88 677.74 249 670.5C242.28 662.22 237.59 652.63 233.69 642.77C228.97 630.81 226.98 617.28 226.71 604.5C226.43 590.78 228.55 576.57 233.17 563.61C235.11 558.17 237.93 552.97 239.68 547.5C234.83 541.79 229.51 536.52 224.95 530.55C213.76 515.86 205.15 498.74 199.35 481.23C180.71 425 197.05 360.81 238.76 319.26C250.24 307.83 264.08 298.09 278.86 291.4C287.81 287.35 297.57 285.53 306.5 281.69C307.69 276.07 307.91 270.25 309.22 264.6C313.73 245.3 323.84 227.28 337.2 212.72C373.43 173.23 437.53 159.7 487.31 178.22C512.28 187.51 531.69 203.53 547.5 224.67ZM782.5 325.97C765.05 365.94 735.44 391.17 695.74 408.28C683.01 413.77 661.47 423.51 650.39 411.13C643.07 402.95 644.81 389.59 653.91 383.42C657.09 381.27 660.66 380.68 664.29 379.7C670.33 378.07 676.71 375.56 682.35 372.84C709.2 359.93 735.56 336.94 741.83 306.47C754.16 246.57 687.21 206.84 634.56 218.25C627.32 219.82 620.05 222.58 613.44 225.92C587.13 239.25 573.06 268.23 570.41 296.63C568.85 313.37 570.12 330.7 570.11 347.5C570.11 363.17 570.1 378.83 570.11 394.5C570.11 399.83 570.11 405.17 570.1 410.5C570.05 430.41 576.92 471.06 544.5 467.25C524.77 464.94 525.03 446.74 525.03 431.5C525.04 423.83 525.06 416.17 525.06 408.5C525.05 402.83 525.05 397.17 525.05 391.5C525.08 372.5 525.06 353.5 525.03 334.5C525.01 321.02 526.18 306.99 524.63 293.59C521.4 265.66 506.7 238.63 481.13 225.39C474.71 222.07 467.58 219.46 460.5 218.03C449.89 215.88 439.22 215.83 428.5 217.04C414.21 218.66 399.76 224.39 387.65 232.12C379.07 237.6 371.37 244.64 365.07 252.61C331.91 294.57 364.83 348.12 405.69 368.79C414.19 373.09 422.82 376.86 432.01 379.49C436.84 380.88 442.02 381.15 446.11 384.4C454.4 391 455.74 404.01 448.19 411.69C436.79 423.28 414.6 413.97 401.64 408.83C373.62 397.71 346.57 379.4 328.57 354.9C321.83 345.73 317.57 335.8 312.5 325.72C295.39 328.75 276.8 343.23 265.52 356.02C233.88 391.92 228.03 444.85 250.51 486.98C257.11 499.35 266.39 511.44 278.03 519.48C301.16 535.44 331.77 534.17 357.5 526C364.87 523.66 371.97 518.27 379.5 516.89C389.36 515.09 398.24 521.52 399.33 531.5C400.99 546.83 385.94 551.98 374.59 557.1C355.51 565.69 333.42 570.61 312.5 570.98C307.52 571.07 302.47 571.17 297.5 570.75C291.56 570.25 285.36 568.64 279.5 569.32C274.98 579.27 272.25 589.52 272.1 600.5C271.99 608.71 272.86 617 275.68 624.77C277.75 630.47 280.34 635.76 283.91 640.65C314.07 682.01 372.26 670.05 416.5 674.25C430.05 675.54 443.3 677.56 456.45 681.11C481.34 687.84 504.53 700.01 525.37 715.07C533.06 720.62 539.77 727.54 547.5 732.96C554.61 728.85 563.01 719.89 570.21 714.67C589.61 700.57 611.55 688.96 634.61 682.18C662.66 673.94 691.41 673.6 720.38 672.53C741.05 671.76 762.8 671.86 782.18 663.62C818.18 648.32 834.27 604.09 815.5 569.15C805.27 568.81 794.88 571.16 784.5 570.96C762.96 570.57 741.02 565.97 721.34 557.17C709.68 551.95 693.37 546.58 696.1 530.53C697.79 520.64 707.82 514.79 717.4 517.17C721.39 518.16 725.19 520.87 728.95 522.51C734.03 524.73 739.22 526.4 744.53 527.95C770.23 535.43 800.96 533.43 821.97 515.47C868.36 475.8 869.16 400.3 829.52 355.98C819.18 344.42 798.19 327.68 782.5 325.97ZM545.57 491.46C556.76 491.18 567.73 493.16 578.06 497.45C603.79 508.14 623.8 531.86 628.9 559.53C636.09 598.55 616.34 640.82 579.22 656.68C570.15 660.56 560.36 662.83 550.5 663.14C540.32 663.46 530.61 661.79 520.99 658.5C450.72 634.45 446.26 528.65 514.09 498.57C524.15 494.1 534.55 491.73 545.57 491.46ZM541.78 536.41C500.41 543.98 499.54 609.49 539.86 618.55C544.59 619.61 549.69 619.55 554.46 618.77C592.32 612.56 595.69 552.74 561.62 538.83C555.27 536.24 548.59 535.17 541.78 536.41ZM547.5 794.95C535.63 805.48 515.11 831.48 511.42 846.81C505.4 871.82 523.62 891.35 548.5 891.01C570.68 890.72 588.79 872.28 584.66 849.69C581.89 834.6 568.02 817.78 558.07 806.42C554.67 802.55 551.61 798.06 547.5 794.95Z" fill="#093745" fill-rule="evenodd" stroke="#093745" stroke-width="0.25" stroke-linejoin="round"/>
</svg>